<svg width="256" height="257" xmlns="http://www.w3.org/2000/svg" aria-hidden="true" role="img" class="iconify iconify--logos" preserveAspectRatio="xMidYMid meet">
 <g id="Layer_1">
  <title>Layer 1</title>
  <path stroke-dasharray="2,2" d="m22.71544,127.09078c1.79973,0.70461 5.54426,1.31987 9.89855,2.46612c3.73377,0.98291 14.47657,3.09814 18.89723,3.87534c5.50673,0.96815 9.19174,0.89875 13.49802,1.40921c3.1053,0.3681 5.29781,0.83732 10.79842,1.40921c4.43473,0.46108 9.09497,0.38084 12.59815,0.70461c3.91668,0.36199 9.01389,1.02288 14.39789,1.40921c4.51326,0.32386 9.89855,0.70461 14.39789,0.70461c6.29907,0 9.89855,0 16.19763,0c4.49934,0 8.09881,0 14.39789,0c4.49933,0 9.02607,-0.28402 15.29775,-0.70461c4.52259,-0.30329 9.96774,-0.96229 13.49803,-1.40921c4.61087,-0.58371 8.99868,-1.40922 12.59815,-2.11382c5.39921,-1.05691 6.93388,-1.53118 8.99868,-2.11382c3.26471,-0.92124 6.48955,-1.3085 8.99868,-2.11382c2.95248,-0.94762 5.77141,-2.33413 8.99868,-3.87534c2.057,-0.98234 5.21586,-2.17062 8.09882,-3.52304c1.28929,-0.60482 2.69961,-2.11383 4.49933,-2.81843c0.89988,-0.3523 1.79974,-1.40921 2.69961,-1.76152l1.79974,-0.70461l0,0l0,0" id="svg_5" stroke="#000" fill="none"/>
 </g>
</svg>